<svg width="45" height="38" viewBox="0 0 45 38" fill="none" xmlns="http://www.w3.org/2000/svg">
<path d="M27.0207 13.375C26.4677 16.5165 27.999 18.1722 29.3602 18.4693C30.7213 18.7665 32.251 16.2336 32.4228 14.1816C32.5855 12.2382 31.3594 9.68161 30.2534 9.6816C29.3602 9.6816 27.5737 10.2335 27.0207 13.375Z" fill="black"/>
<path d="M19.5404 16.9802C19.7819 14.6184 20.3714 13.1516 22.1776 13.117C23.9914 13.4227 25.1126 15.2821 24.8574 17.7868C24.6839 19.4897 23.4392 21.047 21.8799 20.8859C20.4384 20.5765 19.7596 20.1049 19.5404 16.9802Z" fill="black"/>
<path d="M40.3415 11.9526C38.5091 10.8437 35.966 12.8016 35.1946 14.7969C34.5062 16.5776 34.1738 18.9998 35.8327 19.3819C37.4916 19.7639 39.8411 18.3948 40.5967 16.4526C40.8775 15.7309 41.9204 12.9081 40.3415 11.9526Z" fill="black"/>
<path d="M43.1879 21.2712C41.674 20.266 39.8616 21.2977 38.5089 22.375C36.9344 23.629 36.9732 26.8133 38.4664 27.4269C39.9596 28.0405 41.5088 27.2583 42.72 25.9835C43.9985 24.6379 44.5964 22.2065 43.1879 21.2712Z" fill="black"/>
<path d="M34.9012 32.1208C36.0175 28.9173 35.4788 21.4889 31.5834 20.7434C28.7831 20.2075 24.7937 22.8463 24.2247 23.6727C23.6557 24.4991 22.9045 24.2714 22.4807 25.7953C22.0569 27.3192 23.2767 28.6752 24.3523 29.0642C25.6522 29.5343 28.2467 29.1975 28.138 29.701L30.8603 31.7812C32.9354 32.884 34.745 32.5691 34.9012 32.1208Z" fill="black"/>
<path d="M10.3901 1.31246C14.4661 1.00348 18.0085 2.05562 21.5861 7.7496C24.741 2.74241 27.026 0.908813 32.8852 1.00347C39.5364 1.7973 42.0139 4.29832 43.9907 10.2215L41.5789 7.57617C39.4185 4.27473 35.8502 3.00937 32.4228 2.6875C28.3963 2.31607 25.4629 4.76793 21.5861 10.2215C18.3805 5.3909 16.4892 3.43958 12.7119 3.21784C8.86084 3.44373 7.10593 4.05476 5.33391 6.77115C2.39305 12.0754 1 17.946 5.33391 21.0874C10.2516 24.6519 19.8618 31.1487 21.5861 34.75L23.6267 33.0625C24.6529 33.2129 24.8869 33.7916 24.758 34.1875L21.5861 37C19.56 33.4717 17.7102 31.6537 14.0017 28.503C5.16979 23.2107 2.7119 22.1286 1 16.4526C1.14014 6.07863 7.15928 1.55737 10.3901 1.31246Z" fill="black"/>
<path d="M27.0207 13.375C26.4677 16.5165 27.999 18.1722 29.3602 18.4693C30.7213 18.7665 32.251 16.2336 32.4228 14.1816C32.5855 12.2382 31.3594 9.68161 30.2534 9.6816C29.3602 9.6816 27.5737 10.2335 27.0207 13.375Z" stroke="black"/>
<path d="M19.5404 16.9802C19.7819 14.6184 20.3714 13.1516 22.1776 13.117C23.9914 13.4227 25.1126 15.2821 24.8574 17.7868C24.6839 19.4897 23.4392 21.047 21.8799 20.8859C20.4384 20.5765 19.7596 20.1049 19.5404 16.9802Z" stroke="black"/>
<path d="M40.3415 11.9526C38.5091 10.8437 35.966 12.8016 35.1946 14.7969C34.5062 16.5776 34.1738 18.9998 35.8327 19.3819C37.4916 19.7639 39.8411 18.3948 40.5967 16.4526C40.8775 15.7309 41.9204 12.9081 40.3415 11.9526Z" stroke="black"/>
<path d="M43.1879 21.2712C41.674 20.266 39.8616 21.2977 38.5089 22.375C36.9344 23.629 36.9732 26.8133 38.4664 27.4269C39.9596 28.0405 41.5088 27.2583 42.72 25.9835C43.9985 24.6379 44.5964 22.2065 43.1879 21.2712Z" stroke="black"/>
<path d="M34.9012 32.1208C36.0175 28.9173 35.4788 21.4889 31.5834 20.7434C28.7831 20.2075 24.7937 22.8463 24.2247 23.6727C23.6557 24.4991 22.9045 24.2714 22.4807 25.7953C22.0569 27.3192 23.2767 28.6752 24.3523 29.0642C25.6522 29.5343 28.2467 29.1975 28.138 29.701L30.8603 31.7812C32.9354 32.884 34.745 32.5691 34.9012 32.1208Z" stroke="black"/>
<path d="M10.3901 1.31246C14.4661 1.00348 18.0085 2.05562 21.5861 7.7496C24.741 2.74241 27.026 0.908813 32.8852 1.00347C39.5364 1.7973 42.0139 4.29832 43.9907 10.2215L41.5789 7.57617C39.4185 4.27473 35.8502 3.00937 32.4228 2.6875C28.3963 2.31607 25.4629 4.76793 21.5861 10.2215C18.3805 5.3909 16.4892 3.43958 12.7119 3.21784C8.86084 3.44373 7.10593 4.05476 5.33391 6.77115C2.39305 12.0754 1 17.946 5.33391 21.0874C10.2516 24.6519 19.8618 31.1487 21.5861 34.75L23.6267 33.0625C24.6529 33.2129 24.8869 33.7916 24.758 34.1875L21.5861 37C19.56 33.4717 17.7102 31.6537 14.0017 28.503C5.16979 23.2107 2.7119 22.1286 1 16.4526C1.14014 6.07863 7.15928 1.55737 10.3901 1.31246Z" stroke="black"/>
</svg>
