<svg width="129" height="118" viewBox="0 0 129 118" fill="none" xmlns="http://www.w3.org/2000/svg">
<g filter="url(#filter0_d)">
<path d="M71.5439 32.25C70.6823 37.1368 73.0682 39.7123 75.1891 40.1745C77.31 40.6368 79.6934 36.6967 79.9611 33.5047C80.2145 30.4816 78.3041 26.5047 76.5809 26.5047C75.1891 26.5047 72.4055 27.3632 71.5439 32.25Z" fill="black"/>
<path d="M59.8885 37.8581C60.2649 34.1841 61.1833 31.9025 63.9977 31.8486C66.8237 32.3241 68.5708 35.2166 68.1732 39.1128C67.9028 41.7618 65.9634 44.1842 63.5337 43.9336C61.2877 43.4523 60.2301 42.7188 59.8885 37.8581Z" fill="black"/>
<path d="M92.2995 30.0374C89.4444 28.3125 85.482 31.358 84.28 34.4619C83.2074 37.2318 82.6893 40.9997 85.2742 41.594C87.859 42.1883 91.5199 40.0586 92.6972 37.0374C93.1347 35.9147 94.7597 31.5237 92.2995 30.0374Z" fill="black"/>
<path d="M96.7346 44.533C94.3758 42.9693 91.5519 44.5741 89.4442 46.25C86.9907 48.2007 87.0513 53.154 89.3779 54.1085C91.7044 55.0629 94.1183 53.8463 96.0056 51.8632C97.9977 49.77 98.9292 45.9879 96.7346 44.533Z" fill="black"/>
<path d="M83.8228 61.4101C85.5621 56.4269 84.7227 44.8716 78.6532 43.712C74.2899 42.8784 68.0739 46.9831 67.1873 48.2686C66.3007 49.5541 65.1302 49.2 64.4699 51.5705C63.8096 53.941 65.7103 56.0503 67.3861 56.6554C69.4115 57.3868 73.4542 56.8628 73.2848 57.646L77.5265 60.8818C80.7599 62.5973 83.5794 62.1075 83.8228 61.4101Z" fill="black"/>
<path d="M45.6312 13.486C51.9821 13.0054 57.5017 14.6421 63.0759 23.4994C67.9917 15.7104 71.5522 12.8582 80.6816 13.0054C91.0451 14.2402 94.9054 18.1307 97.9855 27.3445L92.6972 20.9825C89.331 15.8469 86.022 18.2902 80.6816 17.7895C74.4078 17.2117 69.1167 20.3588 63.0759 28.8421C58.0812 21.3279 55.6324 20.2456 49.2279 17.7895C43.2275 18.1409 41.3971 19.2739 38.636 23.4994C34.0538 31.7504 35.2472 41.3635 42 46.25C49.6625 51.7948 60.3892 59.898 63.0759 65.5L66.2555 62.875C67.8546 63.1089 68.2191 64.0092 68.0183 64.625L63.0759 69C59.9191 63.5115 55.4353 60.8818 49.2279 56.6554C35.4666 48.423 33.6674 45.8667 31 37.0374C31.2184 20.9001 40.597 13.867 45.6312 13.486Z" fill="black"/>
<path d="M71.5439 32.25C70.6823 37.1368 73.0682 39.7123 75.1891 40.1745C77.31 40.6368 79.6934 36.6967 79.9611 33.5047C80.2145 30.4816 78.3041 26.5047 76.5809 26.5047C75.1891 26.5047 72.4055 27.3632 71.5439 32.25Z" stroke="black"/>
<path d="M59.8885 37.8581C60.2649 34.1841 61.1833 31.9025 63.9977 31.8486C66.8237 32.3241 68.5708 35.2166 68.1732 39.1128C67.9028 41.7618 65.9634 44.1842 63.5337 43.9336C61.2877 43.4523 60.2301 42.7188 59.8885 37.8581Z" stroke="black"/>
<path d="M92.2995 30.0374C89.4444 28.3125 85.482 31.358 84.28 34.4619C83.2074 37.2318 82.6893 40.9997 85.2742 41.594C87.859 42.1883 91.5199 40.0586 92.6972 37.0374C93.1347 35.9147 94.7597 31.5237 92.2995 30.0374Z" stroke="black"/>
<path d="M96.7346 44.533C94.3758 42.9693 91.5519 44.5741 89.4442 46.25C86.9907 48.2007 87.0513 53.154 89.3779 54.1085C91.7044 55.0629 94.1183 53.8463 96.0056 51.8632C97.9977 49.77 98.9292 45.9879 96.7346 44.533Z" stroke="black"/>
<path d="M83.8228 61.4101C85.5621 56.4269 84.7227 44.8716 78.6532 43.712C74.2899 42.8784 68.0739 46.9831 67.1873 48.2686C66.3007 49.5541 65.1302 49.2 64.4699 51.5705C63.8096 53.941 65.7103 56.0503 67.3861 56.6554C69.4115 57.3868 73.4542 56.8628 73.2848 57.646L77.5265 60.8818C80.7599 62.5973 83.5794 62.1075 83.8228 61.4101Z" stroke="black"/>
<path d="M45.6312 13.486C51.9821 13.0054 57.5017 14.6421 63.0759 23.4994C67.9917 15.7104 71.5522 12.8582 80.6816 13.0054C91.0451 14.2402 94.9054 18.1307 97.9855 27.3445L92.6972 20.9825C89.331 15.8469 86.022 18.2902 80.6816 17.7895C74.4078 17.2117 69.1167 20.3588 63.0759 28.8421C58.0812 21.3279 55.6324 20.2456 49.2279 17.7895C43.2275 18.1409 41.3971 19.2739 38.636 23.4994C34.0538 31.7504 35.2472 41.3635 42 46.25C49.6625 51.7948 60.3892 59.898 63.0759 65.5L66.2555 62.875C67.8546 63.1089 68.2191 64.0092 68.0183 64.625L63.0759 69C59.9191 63.5115 55.4353 60.8818 49.2279 56.6554C35.4666 48.423 33.6674 45.8667 31 37.0374C31.2184 20.9001 40.597 13.867 45.6312 13.486Z" stroke="black"/>
</g>
<defs>
<filter id="filter0_d" x="0.499023" y="0.5" width="128" height="117.281" filterUnits="userSpaceOnUse" color-interpolation-filters="sRGB">
<feFlood flood-opacity="0" result="BackgroundImageFix"/>
<feColorMatrix in="SourceAlpha" type="matrix" values="0 0 0 0 0 0 0 0 0 0 0 0 0 0 0 0 0 0 127 0"/>
<feOffset dy="18"/>
<feGaussianBlur stdDeviation="15"/>
<feColorMatrix type="matrix" values="0 0 0 0 0 0 0 0 0 0 0 0 0 0 0 0 0 0 0.3 0"/>
<feBlend mode="normal" in2="BackgroundImageFix" result="effect1_dropShadow"/>
<feBlend mode="normal" in="SourceGraphic" in2="effect1_dropShadow" result="shape"/>
</filter>
</defs>
</svg>
