<svg width="69" height="58" viewBox="0 0 69 58" fill="none" xmlns="http://www.w3.org/2000/svg">
<path d="M41.5439 20.25C40.6823 25.1368 43.0682 27.7123 45.1891 28.1745C47.31 28.6368 49.6934 24.6967 49.9611 21.5047C50.2145 18.4816 48.3041 14.5047 46.5809 14.5047C45.1891 14.5047 42.4055 15.3632 41.5439 20.25Z" fill="black"/>
<path d="M29.8885 25.8581C30.2649 22.1841 31.1833 19.9025 33.9977 19.8486C36.8237 20.3241 38.5708 23.2166 38.1732 27.1128C37.9028 29.7618 35.9634 32.1842 33.5337 31.9336C31.2877 31.4523 30.2301 30.7188 29.8885 25.8581Z" fill="black"/>
<path d="M62.2995 18.0374C59.4444 16.3125 55.482 19.358 54.28 22.4619C53.2074 25.2318 52.6893 28.9997 55.2742 29.594C57.859 30.1883 61.5199 28.0586 62.6972 25.0374C63.1347 23.9147 64.7597 19.5237 62.2995 18.0374Z" fill="black"/>
<path d="M66.7346 32.533C64.3758 30.9693 61.5519 32.5741 59.4442 34.25C56.9907 36.2007 57.0513 41.154 59.3779 42.1085C61.7044 43.0629 64.1183 41.8463 66.0056 39.8632C67.9977 37.77 68.9292 33.9879 66.7346 32.533Z" fill="black"/>
<path d="M53.8228 49.4101C55.5621 44.4269 54.7227 32.8716 48.6532 31.712C44.2899 30.8784 38.0739 34.9831 37.1873 36.2686C36.3007 37.5541 35.1302 37.2 34.4699 39.5705C33.8096 41.941 35.7103 44.0503 37.3861 44.6554C39.4115 45.3868 43.4542 44.8628 43.2848 45.646L47.5265 48.8818C50.7599 50.5973 53.5794 50.1075 53.8228 49.4101Z" fill="black"/>
<path d="M15.6312 1.48604C21.9821 1.00541 27.5017 2.64208 33.0759 11.4994C37.9917 3.71042 41.5522 0.858153 50.6816 1.00539C61.0451 2.24024 64.9054 6.13073 67.9855 15.3445L62.6972 8.98246C59.331 3.84689 56.022 6.29016 50.6816 5.78947C44.4078 5.21169 39.1167 8.35884 33.0759 16.8421C28.0812 9.3279 25.6324 8.24561 19.2279 5.78947C13.2275 6.14086 11.3971 7.27388 8.63603 11.4994C4.05376 19.7504 5.24717 29.3635 12 34.25C19.6625 39.7948 30.3892 47.898 33.0759 53.5L36.2555 50.875C37.8546 51.1089 38.2191 52.0092 38.0183 52.625L33.0759 57C29.9191 51.5115 25.4353 48.8818 19.2279 44.6554C5.46655 36.423 3.66738 33.8667 1 25.0374C1.21835 8.90009 10.597 1.86702 15.6312 1.48604Z" fill="black"/>
<path d="M41.5439 20.25C40.6823 25.1368 43.0682 27.7123 45.1891 28.1745C47.31 28.6368 49.6934 24.6967 49.9611 21.5047C50.2145 18.4816 48.3041 14.5047 46.5809 14.5047C45.1891 14.5047 42.4055 15.3632 41.5439 20.25Z" stroke="black"/>
<path d="M29.8885 25.8581C30.2649 22.1841 31.1833 19.9025 33.9977 19.8486C36.8237 20.3241 38.5708 23.2166 38.1732 27.1128C37.9028 29.7618 35.9634 32.1842 33.5337 31.9336C31.2877 31.4523 30.2301 30.7188 29.8885 25.8581Z" stroke="black"/>
<path d="M62.2995 18.0374C59.4444 16.3125 55.482 19.358 54.28 22.4619C53.2074 25.2318 52.6893 28.9997 55.2742 29.594C57.859 30.1883 61.5199 28.0586 62.6972 25.0374C63.1347 23.9147 64.7597 19.5237 62.2995 18.0374Z" stroke="black"/>
<path d="M66.7346 32.533C64.3758 30.9693 61.5519 32.5741 59.4442 34.25C56.9907 36.2007 57.0513 41.154 59.3779 42.1085C61.7044 43.0629 64.1183 41.8463 66.0056 39.8632C67.9977 37.77 68.9292 33.9879 66.7346 32.533Z" stroke="black"/>
<path d="M53.8228 49.4101C55.5621 44.4269 54.7227 32.8716 48.6532 31.712C44.2899 30.8784 38.0739 34.9831 37.1873 36.2686C36.3007 37.5541 35.1302 37.2 34.4699 39.5705C33.8096 41.941 35.7103 44.0503 37.3861 44.6554C39.4115 45.3868 43.4542 44.8628 43.2848 45.646L47.5265 48.8818C50.7599 50.5973 53.5794 50.1075 53.8228 49.4101Z" stroke="black"/>
<path d="M15.6312 1.48604C21.9821 1.00541 27.5017 2.64208 33.0759 11.4994C37.9917 3.71042 41.5522 0.858153 50.6816 1.00539C61.0451 2.24024 64.9054 6.13073 67.9855 15.3445L62.6972 8.98246C59.331 3.84689 56.022 6.29016 50.6816 5.78947C44.4078 5.21169 39.1167 8.35884 33.0759 16.8421C28.0812 9.3279 25.6324 8.24561 19.2279 5.78947C13.2275 6.14086 11.3971 7.27388 8.63603 11.4994C4.05376 19.7504 5.24717 29.3635 12 34.25C19.6625 39.7948 30.3892 47.898 33.0759 53.5L36.2555 50.875C37.8546 51.1089 38.2191 52.0092 38.0183 52.625L33.0759 57C29.9191 51.5115 25.4353 48.8818 19.2279 44.6554C5.46655 36.423 3.66738 33.8667 1 25.0374C1.21835 8.90009 10.597 1.86702 15.6312 1.48604Z" stroke="black"/>
</svg>
