<svg width="26" height="17" viewBox="0 0 26 17" fill="none" xmlns="http://www.w3.org/2000/svg">
<path fill-rule="evenodd" clip-rule="evenodd" d="M3.81964 0H0.975243C0.162549 0 0 0.421243 0 0.885611C0 1.71512 0.964323 5.82903 4.49004 11.27C6.84052 14.9858 10.1521 17 13.1656 17C14.9736 17 15.1973 16.5526 15.1973 15.7821V12.9737C15.1973 12.0789 15.3686 11.9004 15.9411 11.9004C16.363 11.9004 17.0862 12.1326 18.7738 13.9242C20.7024 16.0475 21.0203 17 22.1051 17H24.9495C25.7622 17 26.1686 16.5526 25.9342 15.6698C25.6777 14.7899 24.7569 13.5132 23.535 11.9999C22.872 11.1373 21.8776 10.2084 21.5763 9.74386C21.1544 9.14672 21.2749 8.88125 21.5763 8.35049C21.5763 8.35049 25.0417 2.97581 25.4034 1.15117C25.5841 0.487542 25.4034 0 24.5432 0H21.6988C20.9756 0 20.6421 0.421243 20.4613 0.885611C20.4613 0.885611 19.0148 4.76734 16.9657 7.28879C16.3027 8.01863 16.0014 8.25091 15.6397 8.25091C15.4589 8.25091 15.1972 8.01863 15.1972 7.35519V1.15117C15.1972 0.354853 14.9874 0 14.3846 0H9.91477C9.46286 0 9.19099 0.369526 9.19099 0.719815C9.19099 1.47462 10.2156 1.64873 10.3212 3.77203V8.38369C10.3212 9.39474 10.1553 9.57807 9.79371 9.57807C8.82943 9.57807 6.48383 5.67898 5.09267 1.21747C4.82007 0.35029 4.54659 0 3.81964 0Z" fill="#747474"/>
</svg>
