<svg width="26" height="18" viewBox="0 0 27 16" fill="none" xmlns="http://www.w3.org/2000/svg">
<path fill-rule="evenodd" clip-rule="evenodd" d="M26.3646 1.11032C26.5648 0.483984 26.3646 0.0284693 25.4782 0.0284693H22.5329C21.7894 0.0284693 21.4463 0.427046 21.2461 0.854093C21.2461 0.854093 19.7306 4.49822 17.6146 6.86121C16.9283 7.54448 16.6137 7.77224 16.242 7.77224C16.0418 7.77224 15.7845 7.54449 15.7845 6.91815V1.08185C15.7845 0.341636 15.5557 0 14.9266 0H10.2942C9.8367 0 9.55075 0.341635 9.55075 0.683272C9.55075 1.39502 10.6088 1.56584 10.7231 3.55872V7.88612C10.7231 8.82562 10.5516 8.99644 10.1798 8.99644C9.17901 8.99644 6.74843 5.32384 5.29008 1.13879C5.00413 0.313167 4.71818 0 3.97471 0H1.00083C0.142975 0 0 0.398575 0 0.825621C0 1.5943 1.00083 5.46619 4.66099 10.5907C7.09157 14.0925 10.5516 15.9715 13.6684 15.9715C15.5557 15.9715 15.7845 15.5445 15.7845 14.8327V12.1851C15.7845 11.331 15.956 11.1886 16.5565 11.1886C16.9855 11.1886 17.7575 11.4164 19.5018 13.0961C21.5035 15.089 21.8466 16 22.9618 16H25.9071C26.765 16 27.1653 15.573 26.9365 14.7473C26.6792 13.9217 25.707 12.726 24.4488 11.3025C23.7625 10.5053 22.7331 9.62278 22.4185 9.19573C21.9896 8.62634 22.104 8.39858 22.4185 7.88612C22.3899 7.88612 25.9929 2.8185 26.3646 1.11032Z" fill="#747474"/>
</svg>
