<svg width="25" height="18" viewBox="0 0 26 18" fill="none" xmlns="http://www.w3.org/2000/svg">
<path d="M24.895 1.70068C24.1897 0.507591 23.4244 0.288136 21.866 0.204682C20.3093 0.104227 16.3946 0.0625 13.0032 0.0625C9.60537 0.0625 5.68912 0.104227 4.134 0.203136C2.57887 0.288136 1.81187 0.506045 1.10012 1.70068C0.37375 2.89223 0 4.94459 0 8.55786C0 8.56095 0 8.5625 0 8.5625C0 8.56559 0 8.56714 0 8.56714V8.57023C0 12.168 0.37375 14.2359 1.10012 15.415C1.81187 16.6081 2.57725 16.8245 4.13237 16.925C5.68912 17.0115 9.60537 17.0625 13.0032 17.0625C16.3946 17.0625 20.3092 17.0115 21.8676 16.9265C23.426 16.826 24.1914 16.6097 24.8966 15.4166C25.6295 14.2374 26 12.1696 26 8.57177C26 8.57177 26 8.56714 26 8.56405C26 8.56405 26 8.56095 26 8.55941C26 4.94459 25.6295 2.89223 24.895 1.70068Z" fill="#747474"/>
<path d="M9.75 13.1989V3.92615L17.875 8.56251L9.75 13.1989Z" fill="#E1E1E1"/>
</svg>
